
<svg xmlns="http://www.w3.org/2000/svg" viewBox="0 0 55 55">
	<style type="text/css">
		.st0{fill:#269B15;}
		.st1{opacity:0.4;fill:url(#SVGID_1_);}
		.st2{opacity:0.4;fill:url(#SVGID_2_);}
		.st3{opacity:0.4;fill:url(#SVGID_3_);}
		.st4{opacity:0.4;fill:url(#SVGID_4_);}
		.st5{opacity:0.7;fill:#8AE200;}
		.st6{opacity:0.6;fill:url(#SVGID_5_);enable-background:new    ;}
		.st7{opacity:0.6;fill:url(#SVGID_6_);enable-background:new    ;}
		.st8{opacity:0.4;fill:url(#SVGID_7_);enable-background:new    ;}
		.st9{opacity:0.4;fill:url(#SVGID_8_);enable-background:new    ;}
		.st10{opacity:0.7;fill:url(#SVGID_9_);enable-background:new    ;}
		.st11{opacity:0.3;fill:url(#SVGID_10_);enable-background:new    ;}
		.st12{opacity:0.4;fill:none;stroke:#B8FFA9;stroke-width:0.25;enable-background:new    ;}
		.st13{fill:#083300;}
		.st14{opacity:0.2;fill:url(#SVGID_11_);enable-background:new    ;}
	</style>
	<polygon class="st0" points="50.4,17.9 37.1,4.6 17.9,4.6 4.6,17.9 4.6,37.1 17.9,50.4 37.1,50.4 50.4,37.1 "/>
	<linearGradient id="SVGID_1_" gradientUnits="userSpaceOnUse" x1="27.4998" y1="17.4382" x2="27.4998" y2="5.6286" gradientTransform="matrix(1 0 0 -1 0 56)">
		<stop  offset="0" style="stop-color:#003F00"/>
		<stop  offset="1" style="stop-color:#009422"/>
	</linearGradient>
	<polygon class="st1" points="22.8,38.6 17.9,50.4 37.1,50.4 32.2,38.6 "/>
	<linearGradient id="SVGID_2_" gradientUnits="userSpaceOnUse" x1="44.4664" y1="18.8583" x2="44.4664" y2="38.1418" gradientTransform="matrix(1 0 0 -1 0 56)">
		<stop  offset="0" style="stop-color:#003F00"/>
		<stop  offset="1" style="stop-color:#009422"/>
	</linearGradient>
	<polygon class="st2" points="38.6,32.2 50.4,37.1 50.4,17.9 38.6,22.8 "/>
	<linearGradient id="SVGID_3_" gradientUnits="userSpaceOnUse" x1="10.5334" y1="18.8583" x2="10.5334" y2="38.1418" gradientTransform="matrix(1 0 0 -1 0 56)">
		<stop  offset="0" style="stop-color:#003F00"/>
		<stop  offset="1" style="stop-color:#009422"/>
	</linearGradient>
	<polygon class="st3" points="16.4,22.8 4.6,17.9 4.6,37.1 16.4,32.2 "/>
	<linearGradient id="SVGID_4_" gradientUnits="userSpaceOnUse" x1="27.4998" y1="39.5625" x2="27.4998" y2="51.3715" gradientTransform="matrix(1 0 0 -1 0 56)">
		<stop  offset="0" style="stop-color:#006A18"/>
		<stop  offset="1" style="stop-color:#009447"/>
	</linearGradient>
	<polygon class="st4" points="32.2,16.4 37.1,4.6 17.9,4.6 22.8,16.4 "/>
	<polygon class="st5" points="22.8,38.6 11.4,43.9 16.4,32.2 "/>
	<polygon class="st5" points="38.6,32.2 43.9,43.6 32.2,38.6 "/>
	<polygon class="st5" points="32.2,16.4 43.6,11.1 38.6,22.8 "/>
	<polygon class="st5" points="16.4,22.8 11.1,11.4 22.8,16.4 "/>
	<linearGradient id="SVGID_5_" gradientUnits="userSpaceOnUse" x1="13.7325" y1="5.6286" x2="13.7325" y2="23.8364" gradientTransform="matrix(1 0 0 -1 0 56)">
		<stop  offset="4.379204e-04" style="stop-color:#297F00"/>
		<stop  offset="1" style="stop-color:#005434"/>
	</linearGradient>
	<polygon class="st6" points="17.9,50.4 22.8,38.6 16.4,32.2 4.6,37.1 "/>
	<linearGradient id="SVGID_6_" gradientUnits="userSpaceOnUse" x1="41.2938" y1="5.6286" x2="41.2938" y2="23.8364" gradientTransform="matrix(1 0 0 -1 0 56)">
		<stop  offset="4.379204e-04" style="stop-color:#297F00"/>
		<stop  offset="1" style="stop-color:#005434"/>
	</linearGradient>
	<polygon class="st7" points="50.4,37.1 38.6,32.2 32.2,38.6 37.2,50.4 "/>
	<linearGradient id="SVGID_7_" gradientUnits="userSpaceOnUse" x1="41.281" y1="33.1643" x2="41.281" y2="51.3715" gradientTransform="matrix(1 0 0 -1 0 56)">
		<stop  offset="4.379204e-04" style="stop-color:#297F00"/>
		<stop  offset="1" style="stop-color:#005434"/>
	</linearGradient>
	<polygon class="st8" points="37.2,4.6 32.2,16.4 38.6,22.8 50.4,17.9 "/>
	<linearGradient id="SVGID_8_" gradientUnits="userSpaceOnUse" x1="13.7193" y1="33.1643" x2="13.7193" y2="51.3715" gradientTransform="matrix(1 0 0 -1 0 56)">
		<stop  offset="4.379204e-04" style="stop-color:#297F00"/>
		<stop  offset="1" style="stop-color:#005434"/>
	</linearGradient>
	<polygon class="st9" points="4.6,17.9 16.4,22.8 22.8,16.4 17.8,4.6 "/>
	<linearGradient id="SVGID_9_" gradientUnits="userSpaceOnUse" x1="27.5069" y1="51.1086" x2="27.5069" y2="5.3658" gradientTransform="matrix(1 0 0 -1 0 56)">
		<stop  offset="4.379204e-04" style="stop-color:#D4FFE6;stop-opacity:0.1"/>
		<stop  offset="1" style="stop-color:#003F14"/>
	</linearGradient>
	<polygon class="st10" points="50.4,17.9 37.1,4.6 17.9,4.6 4.6,17.9 4.6,37.1 17.9,50.4 37.1,50.4 50.4,37.1 "/>
	<radialGradient id="SVGID_10_" cx="27.4998" cy="28.5003" r="16.1508" fx="19.3253" fy="20.5862" gradientTransform="matrix(1 0 0 -1 0 56)" gradientUnits="userSpaceOnUse">
		<stop  offset="4.379204e-04" style="stop-color:#297F00"/>
		<stop  offset="0.3892" style="stop-color:#267C03"/>
		<stop  offset="0.411" style="stop-color:#025631"/>
		<stop  offset="1" style="stop-color:#005434"/>
	</radialGradient>
	<polygon class="st11" points="38.6,22.8 32.2,16.4 22.8,16.4 16.4,22.8 16.4,32.2 22.8,38.6 32.2,38.6 38.6,32.2 "/>
	<path class="st12" d="M50.5,17.7l-11.8,5l4.9-11.5l0.1-0.2l-11.4,5.3l5-11.8H17.7l5,11.8l-11.7-5l5.3,11.3l-11.7-5v19.7l11.8-5
		l-4.9,11.5L11.3,44l11.4-5.3l-5,11.8h19.7l-5-11.8l11.5,5l0.2,0.1l-5.3-11.3l11.7,4.9V17.7z M43.5,11.2l-4.9,11.5l0,0l-6.2-6.2l0,0
		L43.5,11.2z M18.1,4.8h18.9l-4.9,11.5h-9.2L18.1,4.8z M11.2,11.5l11.5,4.9l0,0l-6.2,6.2l0,0L11.2,11.5z M4.8,36.9V18.1l11.5,4.9v9.2
		L4.8,36.9z M11.5,43.8l4.9-11.5l0,0l6.2,6.2l0,0L11.5,43.8z M36.9,50.2H18.1l4.9-11.5h9.2L36.9,50.2z M43.8,43.5l-11.5-4.9l6.2-6.2
		l0,0L43.8,43.5z M50.2,36.9l-11.5-4.9v-9.2l11.5-4.9V36.9z"/>
	<path class="st13" d="M37.1,50.9H17.9c-0.1,0-0.3-0.1-0.4-0.2L4.3,37.5c-0.1-0.1-0.2-0.2-0.2-0.4V17.9c0-0.1,0.1-0.3,0.2-0.4
		L17.5,4.3c0.1-0.1,0.2-0.2,0.4-0.2h19.3c0.1,0,0.3,0.1,0.4,0.2l13.2,13.2c0.1,0.1,0.2,0.2,0.2,0.4v19.3c0,0.1-0.1,0.3-0.2,0.4
		L37.5,50.7C37.4,50.8,37.3,50.9,37.1,50.9z M18.1,49.8h18.8l12.9-12.9V18.1L36.9,5.2H18.1L5.2,18.1v18.8L18.1,49.8z"/>
	<radialGradient id="SVGID_11_" cx="28.6172" cy="30.406" r="21.1944" fx="42.7785" fy="46.1749" gradientTransform="matrix(1 0 0 -1 0 56)" gradientUnits="userSpaceOnUse">
		<stop  offset="4.379204e-04" style="stop-color:#297F00"/>
		<stop  offset="0.6048" style="stop-color:#267C03"/>
		<stop  offset="0.612" style="stop-color:#025631"/>
		<stop  offset="1" style="stop-color:#005434"/>
	</radialGradient>
	<polygon class="st14" points="38.6,22.8 32.2,16.4 22.8,16.4 16.4,22.8 16.4,32.2 22.8,38.6 32.2,38.6 38.6,32.2 "/>
</svg>
